<mxfile host="65bd71144e">
    <diagram id="uBiDaf2zUqSL83g6dxBR" name="Page-1">
        <mxGraphModel dx="640" dy="437" grid="1" gridSize="10" guides="1" tooltips="1" connect="1" arrows="1" fold="1" page="1" pageScale="1" pageWidth="2339" pageHeight="3300" math="0" shadow="0">
            <root>
                <mxCell id="0"/>
                <mxCell id="1" parent="0"/>
                <mxCell id="5" value="GamePanel" style="swimlane;fontStyle=0;childLayout=stackLayout;horizontal=1;startSize=30;horizontalStack=0;resizeParent=1;resizeParentMax=0;resizeLast=0;collapsible=1;marginBottom=0;whiteSpace=wrap;html=1;align=center;" parent="1" vertex="1">
                    <mxGeometry x="1015" y="360" width="210" height="360" as="geometry"/>
                </mxCell>
                <mxCell id="17" value="&lt;div style=&quot;&quot;&gt;&lt;br&gt;&lt;/div&gt;&lt;div style=&quot;&quot;&gt;&lt;div&gt;&lt;span style=&quot;background-color: initial;&quot;&gt;+ scale : int&lt;/span&gt;&lt;/div&gt;&lt;div&gt;&lt;span style=&quot;background-color: initial;&quot;&gt;+ maxCol : int&lt;/span&gt;&lt;/div&gt;&lt;div&gt;&lt;span style=&quot;background-color: initial;&quot;&gt;+ maxRow : int&lt;/span&gt;&lt;/div&gt;&lt;div&gt;&lt;span style=&quot;background-color: initial;&quot;&gt;+ playState : int&lt;/span&gt;&lt;/div&gt;&lt;div&gt;&lt;span style=&quot;background-color: initial;&quot;&gt;+ FPS : int&lt;/span&gt;&lt;/div&gt;&lt;div&gt;+ keyBoard : keyControl&lt;/div&gt;&lt;div&gt;+ hit : boolean&lt;/div&gt;&lt;div&gt;+ map : map&lt;/div&gt;&lt;div&gt;+ SoundEffect : Sound ( )&amp;nbsp;&lt;/div&gt;&lt;div&gt;&lt;br&gt;&lt;/div&gt;&lt;div&gt;&lt;br&gt;&lt;/div&gt;&lt;/div&gt;" style="text;html=1;align=left;verticalAlign=middle;resizable=0;points=[];autosize=1;strokeColor=none;fillColor=none;" parent="5" vertex="1">
                    <mxGeometry y="30" width="210" height="190" as="geometry"/>
                </mxCell>
                <mxCell id="23" value="&lt;div style=&quot;&quot;&gt;+ GamePanel ( )&amp;nbsp;&lt;/div&gt;&lt;div style=&quot;&quot;&gt;+ setupGame ( ) : void&lt;/div&gt;&lt;div style=&quot;&quot;&gt;+ startGameThread ( ) : void&lt;/div&gt;&lt;div style=&quot;&quot;&gt;- FPS ( ) : void&lt;/div&gt;&lt;div style=&quot;&quot;&gt;+ run ( ) : abstract&lt;/div&gt;&lt;div style=&quot;&quot;&gt;+ paintComponent ( Graphic ) : void&lt;/div&gt;&lt;div style=&quot;&quot;&gt;+ playMusic ( ) : void&lt;/div&gt;&lt;div style=&quot;&quot;&gt;+ stopMusic ( ) : void&lt;/div&gt;&lt;div style=&quot;&quot;&gt;+ playSE ( ): void&lt;/div&gt;" style="text;html=1;align=left;verticalAlign=middle;resizable=0;points=[];autosize=1;strokeColor=none;fillColor=none;" parent="5" vertex="1">
                    <mxGeometry y="220" width="210" height="140" as="geometry"/>
                </mxCell>
                <mxCell id="24" value="" style="endArrow=none;html=1;entryX=0.992;entryY=-0.029;entryDx=0;entryDy=0;entryPerimeter=0;exitX=0.017;exitY=-0.029;exitDx=0;exitDy=0;exitPerimeter=0;" parent="5" source="23" target="23" edge="1">
                    <mxGeometry width="50" height="50" relative="1" as="geometry">
                        <mxPoint x="-10" y="60" as="sourcePoint"/>
                        <mxPoint x="40" y="10" as="targetPoint"/>
                        <Array as="points"/>
                    </mxGeometry>
                </mxCell>
                <mxCell id="10" value="Jpanel" style="rounded=1;whiteSpace=wrap;html=1;" parent="1" vertex="1">
                    <mxGeometry x="1380" y="120" width="120" height="60" as="geometry"/>
                </mxCell>
                <mxCell id="11" value="Runnable" style="rounded=0;whiteSpace=wrap;html=1;" parent="1" vertex="1">
                    <mxGeometry x="740" y="120" width="120" height="60" as="geometry"/>
                </mxCell>
                <mxCell id="26" value="collisionCheck" style="swimlane;fontStyle=0;childLayout=stackLayout;horizontal=1;startSize=30;horizontalStack=0;resizeParent=1;resizeParentMax=0;resizeLast=0;collapsible=1;marginBottom=0;whiteSpace=wrap;html=1;" parent="1" vertex="1">
                    <mxGeometry x="2095" y="790" width="200" height="90" as="geometry"/>
                </mxCell>
                <mxCell id="27" value="+gp : GamePanel" style="text;strokeColor=none;fillColor=none;align=left;verticalAlign=middle;spacingLeft=4;spacingRight=4;overflow=hidden;points=[[0,0.5],[1,0.5]];portConstraint=eastwest;rotatable=0;whiteSpace=wrap;html=1;" parent="26" vertex="1">
                    <mxGeometry y="30" width="200" height="30" as="geometry"/>
                </mxCell>
                <mxCell id="28" value="entity : Entity" style="text;strokeColor=none;fillColor=none;align=left;verticalAlign=middle;spacingLeft=4;spacingRight=4;overflow=hidden;points=[[0,0.5],[1,0.5]];portConstraint=eastwest;rotatable=0;whiteSpace=wrap;html=1;" parent="26" vertex="1">
                    <mxGeometry y="60" width="200" height="30" as="geometry"/>
                </mxCell>
                <mxCell id="38" value="" style="swimlane;whiteSpace=wrap;html=1;startSize=0;" parent="1" vertex="1">
                    <mxGeometry x="2095" y="880" width="200" height="110" as="geometry"/>
                </mxCell>
                <mxCell id="43" value="&lt;span style=&quot;text-align: center;&quot;&gt;checkTile(Entity ) : void&lt;/span&gt;&lt;br style=&quot;text-align: center;&quot;&gt;&lt;span style=&quot;text-align: center;&quot;&gt;checkObject(Entity, boolean) : int&lt;/span&gt;" style="text;strokeColor=none;fillColor=none;align=left;verticalAlign=middle;spacingLeft=4;spacingRight=4;overflow=hidden;points=[[0,0.5],[1,0.5]];portConstraint=eastwest;rotatable=0;whiteSpace=wrap;html=1;" parent="38" vertex="1">
                    <mxGeometry width="200" height="110" as="geometry"/>
                </mxCell>
                <mxCell id="46" value="KeyListener" style="rounded=0;whiteSpace=wrap;html=1;" parent="1" vertex="1">
                    <mxGeometry x="1760" y="120" width="120" height="60" as="geometry"/>
                </mxCell>
                <mxCell id="47" value="keyControl" style="swimlane;fontStyle=0;childLayout=stackLayout;horizontal=1;startSize=30;horizontalStack=0;resizeParent=1;resizeParentMax=0;resizeLast=0;collapsible=1;marginBottom=0;whiteSpace=wrap;html=1;align=center;" parent="1" vertex="1">
                    <mxGeometry x="1687.5" y="390" width="240" height="250" as="geometry"/>
                </mxCell>
                <mxCell id="48" value="&lt;div style=&quot;&quot;&gt;+ upPress :&amp;nbsp; boolean&lt;/div&gt;&lt;div style=&quot;&quot;&gt;+ downPress :&amp;nbsp; boolean&lt;/div&gt;&lt;div style=&quot;&quot;&gt;+ rightPress :&amp;nbsp; boolean&lt;/div&gt;&lt;div style=&quot;&quot;&gt;+ leftPress : boolean&lt;/div&gt;&lt;div style=&quot;&quot;&gt;+ isOne :&amp;nbsp; boolean&lt;/div&gt;&lt;div style=&quot;&quot;&gt;+ isTwo :&amp;nbsp; boolean&lt;/div&gt;&lt;div style=&quot;&quot;&gt;+ gp :&amp;nbsp; GamePanel&lt;/div&gt;" style="text;html=1;align=left;verticalAlign=middle;resizable=0;points=[];autosize=1;strokeColor=none;fillColor=none;" parent="47" vertex="1">
                    <mxGeometry y="30" width="240" height="110" as="geometry"/>
                </mxCell>
                <mxCell id="49" value="&lt;div style=&quot;&quot;&gt;+ keyControl ( GamePanel )&lt;/div&gt;&lt;div style=&quot;&quot;&gt;+ keyTyped : void&lt;/div&gt;&lt;div style=&quot;&quot;&gt;+ keyPress : void&lt;/div&gt;&lt;div style=&quot;&quot;&gt;+ keyReleased : void&lt;/div&gt;&lt;div style=&quot;&quot;&gt;+ startState : void&lt;/div&gt;&lt;div style=&quot;&quot;&gt;+ pauseState&lt;/div&gt;&lt;div style=&quot;&quot;&gt;&lt;br&gt;&lt;/div&gt;" style="text;html=1;align=left;verticalAlign=middle;resizable=0;points=[];autosize=1;strokeColor=none;fillColor=none;" parent="47" vertex="1">
                    <mxGeometry y="140" width="240" height="110" as="geometry"/>
                </mxCell>
                <mxCell id="50" value="" style="endArrow=none;html=1;entryX=0.998;entryY=0.999;entryDx=0;entryDy=0;entryPerimeter=0;exitX=0;exitY=1;exitDx=0;exitDy=0;exitPerimeter=0;" parent="47" source="48" target="48" edge="1">
                    <mxGeometry width="50" height="50" relative="1" as="geometry">
                        <mxPoint x="-10" y="60" as="sourcePoint"/>
                        <mxPoint x="40" y="10" as="targetPoint"/>
                    </mxGeometry>
                </mxCell>
                <mxCell id="52" value="keyBoard" style="swimlane;fontStyle=0;childLayout=stackLayout;horizontal=1;startSize=30;horizontalStack=0;resizeParent=1;resizeParentMax=0;resizeLast=0;collapsible=1;marginBottom=0;whiteSpace=wrap;html=1;" parent="1" vertex="1">
                    <mxGeometry x="2125" y="430" width="140" height="90" as="geometry"/>
                </mxCell>
                <mxCell id="55" value="+ gp : GamePanel&lt;br&gt;+ keyType : void&lt;br&gt;+ keyPressed : void&lt;br&gt;+ keyReleased : void" style="text;strokeColor=none;fillColor=none;align=left;verticalAlign=middle;spacingLeft=4;spacingRight=4;overflow=hidden;points=[[0,0.5],[1,0.5]];portConstraint=eastwest;rotatable=0;whiteSpace=wrap;html=1;" parent="52" vertex="1">
                    <mxGeometry y="30" width="140" height="60" as="geometry"/>
                </mxCell>
                <mxCell id="57" value="pauseState" style="swimlane;fontStyle=0;childLayout=stackLayout;horizontal=1;startSize=30;horizontalStack=0;resizeParent=1;resizeParentMax=0;resizeLast=0;collapsible=1;marginBottom=0;whiteSpace=wrap;html=1;" parent="1" vertex="1">
                    <mxGeometry x="2095" y="600" width="200" height="90" as="geometry"/>
                </mxCell>
                <mxCell id="58" value="+ keyPressed ( KeyEvent ) : void" style="text;strokeColor=none;fillColor=none;align=left;verticalAlign=middle;spacingLeft=4;spacingRight=4;overflow=hidden;points=[[0,0.5],[1,0.5]];portConstraint=eastwest;rotatable=0;whiteSpace=wrap;html=1;" parent="57" vertex="1">
                    <mxGeometry y="30" width="200" height="60" as="geometry"/>
                </mxCell>
                <mxCell id="59" value="" style="endArrow=classic;html=1;exitX=0.5;exitY=0;exitDx=0;exitDy=0;fillColor=#1ba1e2;strokeColor=#006EAF;" parent="1" source="57" edge="1">
                    <mxGeometry width="50" height="50" relative="1" as="geometry">
                        <mxPoint x="2075" y="310" as="sourcePoint"/>
                        <mxPoint x="2195" y="520" as="targetPoint"/>
                    </mxGeometry>
                </mxCell>
                <mxCell id="139" value="Extends" style="edgeLabel;html=1;align=center;verticalAlign=middle;resizable=0;points=[];" parent="59" vertex="1" connectable="0">
                    <mxGeometry x="0.1536" relative="1" as="geometry">
                        <mxPoint as="offset"/>
                    </mxGeometry>
                </mxCell>
                <mxCell id="60" value="Event" style="swimlane;fontStyle=0;childLayout=stackLayout;horizontal=1;startSize=30;horizontalStack=0;resizeParent=1;resizeParentMax=0;resizeLast=0;collapsible=1;marginBottom=0;whiteSpace=wrap;html=1;" parent="1" vertex="1">
                    <mxGeometry x="710" y="530" width="240" height="120" as="geometry"/>
                </mxCell>
                <mxCell id="61" value="+gp : GamePanel" style="text;strokeColor=none;fillColor=none;align=left;verticalAlign=middle;spacingLeft=4;spacingRight=4;overflow=hidden;points=[[0,0.5],[1,0.5]];portConstraint=eastwest;rotatable=0;whiteSpace=wrap;html=1;" parent="60" vertex="1">
                    <mxGeometry y="30" width="240" height="40" as="geometry"/>
                </mxCell>
                <mxCell id="62" value="+eventRectangle : Rectangle&lt;br&gt;+ defultX , defultY : int&lt;br&gt;+run : boolean" style="text;strokeColor=none;fillColor=none;align=left;verticalAlign=middle;spacingLeft=4;spacingRight=4;overflow=hidden;points=[[0,0.5],[1,0.5]];portConstraint=eastwest;rotatable=0;whiteSpace=wrap;html=1;" parent="60" vertex="1">
                    <mxGeometry y="70" width="240" height="50" as="geometry"/>
                </mxCell>
                <mxCell id="63" value="" style="swimlane;whiteSpace=wrap;html=1;startSize=0;" parent="1" vertex="1">
                    <mxGeometry x="710" y="650" width="240" height="150" as="geometry"/>
                </mxCell>
                <mxCell id="64" value="&lt;div style=&quot;&quot;&gt;+Event ( GamePanel gp )&lt;/div&gt;&lt;div style=&quot;&quot;&gt;+teleport ( int x , int y ) : void&lt;/div&gt;&lt;div style=&quot;&quot;&gt;+MoveSpeed ( int number ) : void&lt;/div&gt;&lt;div style=&quot;&quot;&gt;+checkEvent() : void&lt;/div&gt;&lt;div style=&quot;&quot;&gt;&amp;nbsp;-musicEvent () : void&lt;/div&gt;&lt;div style=&quot;&quot;&gt;-looseKey() : void&lt;/div&gt;&lt;div style=&quot;&quot;&gt;-checkPlace (int index ) : boolean&lt;/div&gt;&lt;div style=&quot;&quot;&gt;-setAnnouncement () : void&lt;/div&gt;&lt;div style=&quot;&quot;&gt;switchPlayer( int x , int y ) : void&lt;/div&gt;&lt;div style=&quot;&quot;&gt;&lt;br&gt;&lt;/div&gt;&lt;div style=&quot;&quot;&gt;&lt;br&gt;&lt;/div&gt;" style="text;strokeColor=none;fillColor=none;align=left;verticalAlign=middle;spacingLeft=4;spacingRight=4;overflow=hidden;points=[[0,0.5],[1,0.5]];portConstraint=eastwest;rotatable=0;whiteSpace=wrap;html=1;" parent="63" vertex="1">
                    <mxGeometry y="10" width="240" height="140" as="geometry"/>
                </mxCell>
                <mxCell id="65" value="Main" style="swimlane;fontStyle=0;childLayout=stackLayout;horizontal=1;startSize=30;horizontalStack=0;resizeParent=1;resizeParentMax=0;resizeLast=0;collapsible=1;marginBottom=0;whiteSpace=wrap;html=1;swimlaneLine=1;" parent="1" vertex="1">
                    <mxGeometry x="1015" y="30" width="220" height="110" as="geometry">
                        <mxRectangle x="1005" y="910" width="70" height="30" as="alternateBounds"/>
                    </mxGeometry>
                </mxCell>
                <mxCell id="66" value="+ w : JFrame ( )&lt;br&gt;+ gamePanel : GamePanel ( )&amp;nbsp;" style="text;strokeColor=none;fillColor=none;align=left;verticalAlign=middle;spacingLeft=4;spacingRight=4;overflow=hidden;points=[[0,0.5],[1,0.5]];portConstraint=eastwest;rotatable=0;whiteSpace=wrap;html=1;swimlaneLine=1;" parent="65" vertex="1">
                    <mxGeometry y="30" width="220" height="80" as="geometry"/>
                </mxCell>
                <mxCell id="68" value="" style="swimlane;whiteSpace=wrap;html=1;startSize=0;swimlaneLine=1;" parent="1" vertex="1">
                    <mxGeometry x="1015" y="140" width="220" height="140" as="geometry"/>
                </mxCell>
                <mxCell id="69" value="&lt;div style=&quot;&quot;&gt;+ w . setDefaultCloseOperation ( )&lt;/div&gt;&lt;div style=&quot;&quot;&gt;+ w . setResizeable&lt;/div&gt;&lt;div style=&quot;&quot;&gt;+ w . setTitle&lt;/div&gt;&lt;div style=&quot;&quot;&gt;+ w . add ( GamePanel )&lt;/div&gt;&lt;div style=&quot;&quot;&gt;+ w . pack ( )&lt;/div&gt;&lt;div style=&quot;&quot;&gt;+ w . setVisible ( )&lt;/div&gt;&lt;div style=&quot;&quot;&gt;+ gamePanel . startGameThread ( )&lt;/div&gt;&lt;div style=&quot;&quot;&gt;+ gamePanel . setupGame ( )&amp;nbsp;&lt;/div&gt;" style="text;strokeColor=none;fillColor=none;align=left;verticalAlign=middle;spacingLeft=4;spacingRight=4;overflow=hidden;points=[[0,0.5],[1,0.5]];portConstraint=eastwest;rotatable=0;whiteSpace=wrap;html=1;swimlaneLine=1;" parent="68" vertex="1">
                    <mxGeometry width="210" height="140" as="geometry"/>
                </mxCell>
                <mxCell id="70" value="object_set" style="swimlane;fontStyle=0;childLayout=stackLayout;horizontal=1;startSize=30;horizontalStack=0;resizeParent=1;resizeParentMax=0;resizeLast=0;collapsible=1;marginBottom=0;whiteSpace=wrap;html=1;" parent="1" vertex="1">
                    <mxGeometry x="710" y="1272.5" width="200" height="90" as="geometry"/>
                </mxCell>
                <mxCell id="71" value="+gp : GamePanel" style="text;strokeColor=none;fillColor=none;align=left;verticalAlign=middle;spacingLeft=4;spacingRight=4;overflow=hidden;points=[[0,0.5],[1,0.5]];portConstraint=eastwest;rotatable=0;whiteSpace=wrap;html=1;" parent="70" vertex="1">
                    <mxGeometry y="30" width="200" height="60" as="geometry"/>
                </mxCell>
                <mxCell id="73" value="" style="swimlane;whiteSpace=wrap;html=1;startSize=0;" parent="1" vertex="1">
                    <mxGeometry x="710" y="1362.5" width="200" height="65" as="geometry"/>
                </mxCell>
                <mxCell id="74" value="&lt;div style=&quot;&quot;&gt;&lt;span style=&quot;background-color: initial;&quot;&gt;+object_set ( GamePanel)&lt;/span&gt;&lt;/div&gt;&lt;div style=&quot;&quot;&gt;+ setup : void&lt;/div&gt;" style="text;strokeColor=none;fillColor=none;align=left;verticalAlign=middle;spacingLeft=4;spacingRight=4;overflow=hidden;points=[[0,0.5],[1,0.5]];portConstraint=eastwest;rotatable=0;whiteSpace=wrap;html=1;" parent="73" vertex="1">
                    <mxGeometry width="200" height="50" as="geometry"/>
                </mxCell>
                <mxCell id="79" value="tools" style="swimlane;fontStyle=0;childLayout=stackLayout;horizontal=1;startSize=30;horizontalStack=0;resizeParent=1;resizeParentMax=0;resizeLast=0;collapsible=1;marginBottom=0;whiteSpace=wrap;html=1;" parent="1" vertex="1">
                    <mxGeometry x="1877.5" y="1277.5" width="200" height="90" as="geometry"/>
                </mxCell>
                <mxCell id="80" value="+ scale_Image : BufferedImage&lt;br&gt;+ g2 : Graphics2D" style="text;strokeColor=none;fillColor=none;align=left;verticalAlign=middle;spacingLeft=4;spacingRight=4;overflow=hidden;points=[[0,0.5],[1,0.5]];portConstraint=eastwest;rotatable=0;whiteSpace=wrap;html=1;" parent="79" vertex="1">
                    <mxGeometry y="30" width="200" height="60" as="geometry"/>
                </mxCell>
                <mxCell id="81" value="" style="swimlane;whiteSpace=wrap;html=1;startSize=0;" parent="1" vertex="1">
                    <mxGeometry x="1877.5" y="1367.5" width="200" height="70" as="geometry"/>
                </mxCell>
                <mxCell id="82" value="&lt;div style=&quot;&quot;&gt;+ g2 . drawImage ( ) : void&lt;/div&gt;&lt;div style=&quot;&quot;&gt;+ g2 . dispose ( ) : void&lt;/div&gt;" style="text;strokeColor=none;fillColor=none;align=left;verticalAlign=middle;spacingLeft=4;spacingRight=4;overflow=hidden;points=[[0,0.5],[1,0.5]];portConstraint=eastwest;rotatable=0;whiteSpace=wrap;html=1;" parent="81" vertex="1">
                    <mxGeometry x="-5" width="200" height="60" as="geometry"/>
                </mxCell>
                <mxCell id="83" value="choosePlayer" style="swimlane;fontStyle=0;childLayout=stackLayout;horizontal=1;startSize=30;horizontalStack=0;resizeParent=1;resizeParentMax=0;resizeLast=0;collapsible=1;marginBottom=0;whiteSpace=wrap;html=1;align=center;" parent="1" vertex="1">
                    <mxGeometry x="1860" y="1040" width="230" height="130" as="geometry"/>
                </mxCell>
                <mxCell id="84" value="&lt;div style=&quot;&quot;&gt;+ gp : GamePanel&lt;/div&gt;&lt;div style=&quot;&quot;&gt;+ Imagine : BufferedImage&lt;/div&gt;" style="text;html=1;align=left;verticalAlign=middle;resizable=0;points=[];autosize=1;strokeColor=none;fillColor=none;" parent="83" vertex="1">
                    <mxGeometry y="30" width="230" height="40" as="geometry"/>
                </mxCell>
                <mxCell id="85" value="&lt;div style=&quot;&quot;&gt;- getplayerImage ( ) : void&lt;/div&gt;&lt;div style=&quot;&quot;&gt;+ setup : BufferedImage&lt;/div&gt;&lt;div style=&quot;&quot;&gt;+ get_image : BufferedImage&amp;nbsp;&lt;/div&gt;" style="text;html=1;align=left;verticalAlign=middle;resizable=0;points=[];autosize=1;strokeColor=none;fillColor=none;" parent="83" vertex="1">
                    <mxGeometry y="70" width="230" height="60" as="geometry"/>
                </mxCell>
                <mxCell id="86" value="" style="endArrow=none;html=1;" parent="83" edge="1">
                    <mxGeometry width="50" height="50" relative="1" as="geometry">
                        <mxPoint y="70" as="sourcePoint"/>
                        <mxPoint x="230" y="70" as="targetPoint"/>
                        <Array as="points"/>
                    </mxGeometry>
                </mxCell>
                <mxCell id="91" value="Imagine" style="shape=note;whiteSpace=wrap;html=1;backgroundOutline=1;darkOpacity=0.05;" parent="1" vertex="1">
                    <mxGeometry x="2175" y="1060" width="80" height="100" as="geometry"/>
                </mxCell>
                <mxCell id="95" value="" style="endArrow=classic;html=1;entryX=-0.003;entryY=0.528;entryDx=0;entryDy=0;entryPerimeter=0;exitX=0.5;exitY=0;exitDx=0;exitDy=0;fillColor=#f0a30a;strokeColor=#BD7000;" parent="1" source="60" target="17" edge="1">
                    <mxGeometry width="50" height="50" relative="1" as="geometry">
                        <mxPoint x="810" y="490" as="sourcePoint"/>
                        <mxPoint x="930" y="460" as="targetPoint"/>
                        <Array as="points">
                            <mxPoint x="830" y="490"/>
                        </Array>
                    </mxGeometry>
                </mxCell>
                <mxCell id="97" value="" style="shape=flexArrow;endArrow=classic;html=1;exitX=0;exitY=0.5;exitDx=0;exitDy=0;exitPerimeter=0;entryX=1.002;entryY=0.02;entryDx=0;entryDy=0;entryPerimeter=0;" parent="1" source="91" target="85" edge="1">
                    <mxGeometry width="50" height="50" relative="1" as="geometry">
                        <mxPoint x="1455" y="1090" as="sourcePoint"/>
                        <mxPoint x="1505" y="1040" as="targetPoint"/>
                        <Array as="points"/>
                    </mxGeometry>
                </mxCell>
                <mxCell id="100" value="Player" style="swimlane;fontStyle=0;childLayout=stackLayout;horizontal=1;startSize=30;horizontalStack=0;resizeParent=1;resizeParentMax=0;resizeLast=0;collapsible=1;marginBottom=0;whiteSpace=wrap;html=1;" parent="1" vertex="1">
                    <mxGeometry x="1320" y="530" width="220" height="150" as="geometry">
                        <mxRectangle x="1320" y="530" width="70" height="30" as="alternateBounds"/>
                    </mxGeometry>
                </mxCell>
                <mxCell id="101" value="+ gp : GamePanel&lt;br&gt;+ keycontrol : keyBoard&amp;nbsp;&lt;br&gt;+ chooseSprite : choosePlayer ():&lt;br&gt;- transfer : boolean&lt;br&gt;+ screenX : int&amp;nbsp;&lt;br&gt;+ screenY : int&amp;nbsp;&lt;br&gt;+ isMove : boolean" style="text;strokeColor=none;fillColor=none;align=left;verticalAlign=middle;spacingLeft=4;spacingRight=4;overflow=hidden;points=[[0,0.5],[1,0.5]];portConstraint=eastwest;rotatable=0;whiteSpace=wrap;html=1;" parent="100" vertex="1">
                    <mxGeometry y="30" width="220" height="120" as="geometry"/>
                </mxCell>
                <mxCell id="102" value="" style="swimlane;whiteSpace=wrap;html=1;startSize=0;direction=south;" parent="1" vertex="1">
                    <mxGeometry x="1320" y="680" width="220" height="200" as="geometry"/>
                </mxCell>
                <mxCell id="103" value="&lt;div style=&quot;&quot;&gt;- Player ( GamePanel , keyControl )&lt;/div&gt;&lt;div style=&quot;&quot;&gt;+PlayerInstance( GamePanel , keyControl)&lt;/div&gt;&lt;div style=&quot;&quot;&gt;+ setTransfer ( boolean ) : void&lt;/div&gt;&lt;div style=&quot;&quot;&gt;+ getTransfer ( ) : boolean&lt;/div&gt;&lt;div style=&quot;&quot;&gt;+&amp;nbsp;&lt;span style=&quot;background-color: initial;&quot;&gt;SetAnnouncements ( ) : void&lt;/span&gt;&lt;/div&gt;&lt;div style=&quot;&quot;&gt;&lt;span style=&quot;background-color: initial;&quot;&gt;+ announce ( int , boolean ) : void&lt;/span&gt;&lt;/div&gt;&lt;div style=&quot;&quot;&gt;&lt;span style=&quot;background-color: initial;&quot;&gt;+ setDefultValues ( ) : void&lt;/span&gt;&lt;/div&gt;&lt;div style=&quot;&quot;&gt;&lt;span style=&quot;background-color: initial;&quot;&gt;+ update ( ) : void&lt;/span&gt;&lt;/div&gt;&lt;div style=&quot;&quot;&gt;+ reset ( ) : void&lt;/div&gt;&lt;div style=&quot;&quot;&gt;+ pickupObject ( int ) : void&lt;/div&gt;&lt;div style=&quot;&quot;&gt;- addObject ( String , int , int ) : void&lt;/div&gt;&lt;div style=&quot;&quot;&gt;+ draw ( ) : void&lt;/div&gt;" style="text;strokeColor=none;fillColor=none;align=left;verticalAlign=middle;spacingLeft=4;spacingRight=4;overflow=hidden;points=[[0,0.5],[1,0.5]];portConstraint=eastwest;rotatable=0;whiteSpace=wrap;html=1;" parent="102" vertex="1">
                    <mxGeometry width="220" height="200" as="geometry"/>
                </mxCell>
                <mxCell id="105" value="" style="endArrow=classic;html=1;entryX=0.507;entryY=0.986;entryDx=0;entryDy=0;entryPerimeter=0;exitX=0.5;exitY=0;exitDx=0;exitDy=0;" parent="1" source="79" target="85" edge="1">
                    <mxGeometry width="50" height="50" relative="1" as="geometry">
                        <mxPoint x="1980" y="1267.5" as="sourcePoint"/>
                        <mxPoint x="1970" y="1177.5" as="targetPoint"/>
                    </mxGeometry>
                </mxCell>
                <mxCell id="106" value="Entity" style="swimlane;fontStyle=0;childLayout=stackLayout;horizontal=1;startSize=30;horizontalStack=0;resizeParent=1;resizeParentMax=0;resizeLast=0;collapsible=1;marginBottom=0;whiteSpace=wrap;html=1;" parent="1" vertex="1">
                    <mxGeometry x="1330" y="1040" width="200" height="140" as="geometry"/>
                </mxCell>
                <mxCell id="107" value="+ worldX : int&lt;br&gt;+ worldY : int&lt;br&gt;+ speed : int&amp;nbsp;&lt;br&gt;+ direction : String&lt;br&gt;+ solidArea : Retangle&amp;nbsp;&lt;br&gt;+ collisionEnabled : boolean&lt;br&gt;+ announments : String [ ]&amp;nbsp;" style="text;strokeColor=none;fillColor=none;align=left;verticalAlign=middle;spacingLeft=4;spacingRight=4;overflow=hidden;points=[[0,0.5],[1,0.5]];portConstraint=eastwest;rotatable=0;whiteSpace=wrap;html=1;" parent="106" vertex="1">
                    <mxGeometry y="30" width="200" height="110" as="geometry"/>
                </mxCell>
                <mxCell id="108" value="" style="swimlane;whiteSpace=wrap;html=1;startSize=0;" parent="1" vertex="1">
                    <mxGeometry x="1330" y="1180" width="200" height="30" as="geometry"/>
                </mxCell>
                <mxCell id="109" value="&lt;div style=&quot;&quot;&gt;+ announce ( ) : void&lt;/div&gt;" style="text;strokeColor=none;fillColor=none;align=left;verticalAlign=middle;spacingLeft=4;spacingRight=4;overflow=hidden;points=[[0,0.5],[1,0.5]];portConstraint=eastwest;rotatable=0;whiteSpace=wrap;html=1;" parent="108" vertex="1">
                    <mxGeometry width="200" height="30" as="geometry"/>
                </mxCell>
                <mxCell id="111" value="" style="endArrow=classic;html=1;exitX=-0.001;exitY=0.295;exitDx=0;exitDy=0;exitPerimeter=0;" parent="1" source="55" edge="1">
                    <mxGeometry width="50" height="50" relative="1" as="geometry">
                        <mxPoint x="1980" y="470" as="sourcePoint"/>
                        <mxPoint x="1930" y="480" as="targetPoint"/>
                    </mxGeometry>
                </mxCell>
                <mxCell id="113" value="" style="endArrow=classic;html=1;entryX=1.01;entryY=0.525;entryDx=0;entryDy=0;entryPerimeter=0;exitX=0.5;exitY=0;exitDx=0;exitDy=0;fillColor=#f0a30a;strokeColor=#BD7000;" parent="1" source="100" target="17" edge="1">
                    <mxGeometry width="50" height="50" relative="1" as="geometry">
                        <mxPoint x="1530" y="530" as="sourcePoint"/>
                        <mxPoint x="1580" y="480" as="targetPoint"/>
                        <Array as="points">
                            <mxPoint x="1430" y="489"/>
                        </Array>
                    </mxGeometry>
                </mxCell>
                <mxCell id="116" value="" style="endArrow=classic;html=1;entryX=1.006;entryY=0.143;entryDx=0;entryDy=0;entryPerimeter=0;exitX=0.001;exitY=0.543;exitDx=0;exitDy=0;exitPerimeter=0;" parent="1" source="48" target="103" edge="1">
                    <mxGeometry width="50" height="50" relative="1" as="geometry">
                        <mxPoint x="1530" y="450" as="sourcePoint"/>
                        <mxPoint x="1540" y="690" as="targetPoint"/>
                        <Array as="points">
                            <mxPoint x="1620" y="480"/>
                            <mxPoint x="1620" y="704"/>
                        </Array>
                    </mxGeometry>
                </mxCell>
                <mxCell id="119" value="" style="endArrow=classic;html=1;exitX=0.505;exitY=1.012;exitDx=0;exitDy=0;fillColor=#1ba1e2;strokeColor=#006EAF;exitPerimeter=0;entryX=0.5;entryY=0;entryDx=0;entryDy=0;" parent="1" source="103" target="106" edge="1">
                    <mxGeometry relative="1" as="geometry">
                        <mxPoint x="1280" y="770" as="sourcePoint"/>
                        <mxPoint x="1370" y="980" as="targetPoint"/>
                    </mxGeometry>
                </mxCell>
                <mxCell id="120" value="Extends" style="edgeLabel;resizable=0;html=1;align=center;verticalAlign=middle;" parent="119" connectable="0" vertex="1">
                    <mxGeometry relative="1" as="geometry">
                        <mxPoint x="1" y="-27" as="offset"/>
                    </mxGeometry>
                </mxCell>
                <mxCell id="121" value="" style="endArrow=classic;html=1;entryX=0.5;entryY=1;entryDx=0;entryDy=0;fillColor=#1ba1e2;strokeColor=#006EAF;exitX=1.003;exitY=0.106;exitDx=0;exitDy=0;exitPerimeter=0;" parent="1" source="17" target="10" edge="1">
                    <mxGeometry relative="1" as="geometry">
                        <mxPoint x="1230" y="410" as="sourcePoint"/>
                        <mxPoint x="1190" y="520" as="targetPoint"/>
                        <Array as="points">
                            <mxPoint x="1440" y="410"/>
                        </Array>
                    </mxGeometry>
                </mxCell>
                <mxCell id="122" value="Extends" style="edgeLabel;resizable=0;html=1;align=center;verticalAlign=middle;" parent="121" connectable="0" vertex="1">
                    <mxGeometry relative="1" as="geometry">
                        <mxPoint y="-76" as="offset"/>
                    </mxGeometry>
                </mxCell>
                <mxCell id="123" value="" style="endArrow=classic;html=1;entryX=0.5;entryY=1;entryDx=0;entryDy=0;fillColor=#60a917;strokeColor=#2D7600;exitX=-0.001;exitY=0.105;exitDx=0;exitDy=0;exitPerimeter=0;" parent="1" source="17" target="11" edge="1">
                    <mxGeometry relative="1" as="geometry">
                        <mxPoint x="1010" y="410" as="sourcePoint"/>
                        <mxPoint x="1120" y="330" as="targetPoint"/>
                        <Array as="points">
                            <mxPoint x="800" y="410"/>
                        </Array>
                    </mxGeometry>
                </mxCell>
                <mxCell id="124" value="Implements" style="edgeLabel;resizable=0;html=1;align=center;verticalAlign=middle;" parent="123" connectable="0" vertex="1">
                    <mxGeometry relative="1" as="geometry">
                        <mxPoint y="-77" as="offset"/>
                    </mxGeometry>
                </mxCell>
                <mxCell id="129" value="" style="endArrow=none;html=1;entryX=0.5;entryY=0;entryDx=0;entryDy=0;exitX=1.01;exitY=0.136;exitDx=0;exitDy=0;exitPerimeter=0;" parent="1" source="103" target="83" edge="1">
                    <mxGeometry width="50" height="50" relative="1" as="geometry">
                        <mxPoint x="1700" y="650" as="sourcePoint"/>
                        <mxPoint x="1820" y="690" as="targetPoint"/>
                        <Array as="points">
                            <mxPoint x="1975" y="703"/>
                        </Array>
                    </mxGeometry>
                </mxCell>
                <mxCell id="133" value="" style="endArrow=classic;html=1;fillColor=#60a917;strokeColor=#2D7600;exitX=0.532;exitY=-0.002;exitDx=0;exitDy=0;exitPerimeter=0;entryX=0.46;entryY=1.035;entryDx=0;entryDy=0;entryPerimeter=0;" parent="1" source="47" target="46" edge="1">
                    <mxGeometry relative="1" as="geometry">
                        <mxPoint x="1670" y="190" as="sourcePoint"/>
                        <mxPoint x="1820" y="200" as="targetPoint"/>
                        <Array as="points"/>
                    </mxGeometry>
                </mxCell>
                <mxCell id="134" value="Implements" style="edgeLabel;resizable=0;html=1;align=center;verticalAlign=middle;" parent="133" connectable="0" vertex="1">
                    <mxGeometry relative="1" as="geometry">
                        <mxPoint y="-11" as="offset"/>
                    </mxGeometry>
                </mxCell>
                <mxCell id="135" value="" style="endArrow=classic;html=1;fillColor=#60a917;strokeColor=#2D7600;exitX=0.5;exitY=0;exitDx=0;exitDy=0;entryX=1.005;entryY=0.44;entryDx=0;entryDy=0;entryPerimeter=0;" parent="1" source="52" target="46" edge="1">
                    <mxGeometry relative="1" as="geometry">
                        <mxPoint x="1825.1799999999998" y="369.5" as="sourcePoint"/>
                        <mxPoint x="1825.1999999999998" y="192.10000000000002" as="targetPoint"/>
                        <Array as="points">
                            <mxPoint x="2195" y="146"/>
                        </Array>
                    </mxGeometry>
                </mxCell>
                <mxCell id="136" value="Implements" style="edgeLabel;resizable=0;html=1;align=center;verticalAlign=middle;" parent="135" connectable="0" vertex="1">
                    <mxGeometry relative="1" as="geometry">
                        <mxPoint x="10" y="124" as="offset"/>
                    </mxGeometry>
                </mxCell>
                <mxCell id="140" value="Map" style="shape=note;whiteSpace=wrap;html=1;backgroundOutline=1;darkOpacity=0.05;" parent="1" vertex="1">
                    <mxGeometry x="780" y="1490" width="80" height="100" as="geometry"/>
                </mxCell>
                <mxCell id="141" value="" style="shape=flexArrow;endArrow=classic;html=1;exitX=0.374;exitY=-0.015;exitDx=0;exitDy=0;exitPerimeter=0;entryX=0.5;entryY=1;entryDx=0;entryDy=0;" parent="1" source="140" target="73" edge="1">
                    <mxGeometry width="50" height="50" relative="1" as="geometry">
                        <mxPoint x="860" y="1347.5" as="sourcePoint"/>
                        <mxPoint x="710" y="1387.5" as="targetPoint"/>
                    </mxGeometry>
                </mxCell>
                <mxCell id="142" value="map" style="swimlane;fontStyle=0;childLayout=stackLayout;horizontal=1;startSize=30;horizontalStack=0;resizeParent=1;resizeParentMax=0;resizeLast=0;collapsible=1;marginBottom=0;whiteSpace=wrap;html=1;" parent="1" vertex="1">
                    <mxGeometry x="710" y="1040" width="200" height="90" as="geometry"/>
                </mxCell>
                <mxCell id="143" value="+gp : GamePanel" style="text;strokeColor=none;fillColor=none;align=left;verticalAlign=middle;spacingLeft=4;spacingRight=4;overflow=hidden;points=[[0,0.5],[1,0.5]];portConstraint=eastwest;rotatable=0;whiteSpace=wrap;html=1;" parent="142" vertex="1">
                    <mxGeometry y="30" width="200" height="60" as="geometry"/>
                </mxCell>
                <mxCell id="144" value="" style="swimlane;whiteSpace=wrap;html=1;startSize=0;" parent="1" vertex="1">
                    <mxGeometry x="710" y="1130" width="200" height="60" as="geometry"/>
                </mxCell>
                <mxCell id="145" value="&lt;div style=&quot;&quot;&gt;+ map ( GamePanel )&amp;nbsp;&lt;/div&gt;&lt;div style=&quot;&quot;&gt;+ set ( ) : void&lt;/div&gt;&lt;div style=&quot;&quot;&gt;+ reset ( ) : void&lt;/div&gt;" style="text;strokeColor=none;fillColor=none;align=left;verticalAlign=middle;spacingLeft=4;spacingRight=4;overflow=hidden;points=[[0,0.5],[1,0.5]];portConstraint=eastwest;rotatable=0;whiteSpace=wrap;html=1;" parent="144" vertex="1">
                    <mxGeometry width="200" height="50" as="geometry"/>
                </mxCell>
                <mxCell id="147" value="" style="endArrow=classic;html=1;exitX=0.5;exitY=0;exitDx=0;exitDy=0;entryX=0.5;entryY=1;entryDx=0;entryDy=0;" parent="1" source="70" target="144" edge="1">
                    <mxGeometry width="50" height="50" relative="1" as="geometry">
                        <mxPoint x="700" y="1140" as="sourcePoint"/>
                        <mxPoint x="590" y="1010" as="targetPoint"/>
                        <Array as="points">
                            <mxPoint x="810" y="1230"/>
                        </Array>
                    </mxGeometry>
                </mxCell>
                <mxCell id="150" value="&lt;div style=&quot;background-color: rgb(30, 30, 30); font-family: Consolas, &amp;quot;Courier New&amp;quot;, monospace; font-size: 14px; line-height: 19px;&quot;&gt;&lt;font color=&quot;#d3e9e4&quot;&gt;UI_interface&lt;/font&gt;&lt;/div&gt;" style="rounded=0;whiteSpace=wrap;html=1;" parent="1" vertex="1">
                    <mxGeometry x="480" y="120" width="120" height="60" as="geometry"/>
                </mxCell>
                <mxCell id="151" value="pauseScreen" style="swimlane;fontStyle=0;childLayout=stackLayout;horizontal=1;startSize=30;horizontalStack=0;resizeParent=1;resizeParentMax=0;resizeLast=0;collapsible=1;marginBottom=0;whiteSpace=wrap;html=1;" parent="1" vertex="1">
                    <mxGeometry x="420" y="530" width="240" height="120" as="geometry"/>
                </mxCell>
                <mxCell id="153" value="+ gp : GamePanel&lt;br&gt;+ g2 : Graphic2D&lt;br&gt;+ playerImage : choose Player ( )&amp;nbsp;&lt;br&gt;+ command : int&lt;br&gt;+ drawSubScreen : boolean&amp;nbsp;&lt;br&gt;+ pause : boolean" style="text;strokeColor=none;fillColor=none;align=left;verticalAlign=middle;spacingLeft=4;spacingRight=4;overflow=hidden;points=[[0,0.5],[1,0.5]];portConstraint=eastwest;rotatable=0;whiteSpace=wrap;html=1;" parent="151" vertex="1">
                    <mxGeometry y="30" width="240" height="90" as="geometry"/>
                </mxCell>
                <mxCell id="154" value="" style="swimlane;whiteSpace=wrap;html=1;startSize=0;" parent="1" vertex="1">
                    <mxGeometry x="420" y="650" width="240" height="150" as="geometry"/>
                </mxCell>
                <mxCell id="155" value="&lt;div style=&quot;&quot;&gt;+ pauseScreen ( Gamepanel )&lt;/div&gt;&lt;div style=&quot;&quot;&gt;- setArrow ( int , int ) : void&lt;/div&gt;&lt;div style=&quot;&quot;&gt;+ draw ( Graphics2D ) : void&lt;/div&gt;&lt;div style=&quot;&quot;&gt;- LocateCenterText ( String ) : int&amp;nbsp;&lt;/div&gt;&lt;div style=&quot;&quot;&gt;- menu ( Graphics2D , int , int ) : void&lt;/div&gt;&lt;div style=&quot;&quot;&gt;+ drawScreen ( String ) : void&lt;/div&gt;&lt;div style=&quot;&quot;&gt;+ drawSubScreen( int , int , int , int ) : void&lt;/div&gt;" style="text;strokeColor=none;fillColor=none;align=left;verticalAlign=middle;spacingLeft=4;spacingRight=4;overflow=hidden;points=[[0,0.5],[1,0.5]];portConstraint=eastwest;rotatable=0;whiteSpace=wrap;html=1;" parent="154" vertex="1">
                    <mxGeometry y="10" width="240" height="140" as="geometry"/>
                </mxCell>
                <mxCell id="156" value="" style="endArrow=none;html=1;fontColor=#d3e9e4;exitX=0.5;exitY=0;exitDx=0;exitDy=0;entryX=-0.01;entryY=0.531;entryDx=0;entryDy=0;entryPerimeter=0;fillColor=#f0a30a;strokeColor=#BD7000;" parent="1" source="151" target="17" edge="1">
                    <mxGeometry width="50" height="50" relative="1" as="geometry">
                        <mxPoint x="700" y="630" as="sourcePoint"/>
                        <mxPoint x="540" y="490" as="targetPoint"/>
                        <Array as="points">
                            <mxPoint x="540" y="520"/>
                            <mxPoint x="540" y="491"/>
                        </Array>
                    </mxGeometry>
                </mxCell>
                <mxCell id="157" value="" style="endArrow=classic;html=1;entryX=0.5;entryY=1;entryDx=0;entryDy=0;fillColor=#60a917;strokeColor=#2D7600;exitX=0.5;exitY=0;exitDx=0;exitDy=0;" parent="1" source="151" target="150" edge="1">
                    <mxGeometry relative="1" as="geometry">
                        <mxPoint x="1024.79" y="419.95000000000005" as="sourcePoint"/>
                        <mxPoint x="939.9999999999998" y="190" as="targetPoint"/>
                        <Array as="points"/>
                    </mxGeometry>
                </mxCell>
                <mxCell id="158" value="Implements" style="edgeLabel;resizable=0;html=1;align=center;verticalAlign=middle;" parent="157" connectable="0" vertex="1">
                    <mxGeometry relative="1" as="geometry">
                        <mxPoint y="-77" as="offset"/>
                    </mxGeometry>
                </mxCell>
                <mxCell id="159" value="" style="endArrow=classic;html=1;fontColor=#d3e9e4;exitX=0.5;exitY=0;exitDx=0;exitDy=0;entryX=0.496;entryY=1.016;entryDx=0;entryDy=0;entryPerimeter=0;" parent="1" source="83" target="155" edge="1">
                    <mxGeometry width="50" height="50" relative="1" as="geometry">
                        <mxPoint x="1500" y="630" as="sourcePoint"/>
                        <mxPoint x="500" y="830" as="targetPoint"/>
                        <Array as="points">
                            <mxPoint x="1975" y="960"/>
                            <mxPoint x="1620" y="960"/>
                            <mxPoint x="1270" y="960"/>
                            <mxPoint x="1090" y="960"/>
                            <mxPoint x="910" y="960"/>
                            <mxPoint x="720" y="960"/>
                            <mxPoint x="539" y="960"/>
                        </Array>
                    </mxGeometry>
                </mxCell>
                <mxCell id="160" value="startScreen" style="swimlane;fontStyle=0;childLayout=stackLayout;horizontal=1;startSize=30;horizontalStack=0;resizeParent=1;resizeParentMax=0;resizeLast=0;collapsible=1;marginBottom=0;whiteSpace=wrap;html=1;" parent="1" vertex="1">
                    <mxGeometry x="110" y="530" width="240" height="120" as="geometry"/>
                </mxCell>
                <mxCell id="161" value="+ gp : GamePanel&lt;br&gt;+ g2 : Graphic2D&lt;br&gt;+ playerImage : choose Player ( )&amp;nbsp;&lt;br&gt;+ command : int&lt;br&gt;+ drawSubScreen : boolean&amp;nbsp;&lt;br&gt;+ pause : boolean" style="text;strokeColor=none;fillColor=none;align=left;verticalAlign=middle;spacingLeft=4;spacingRight=4;overflow=hidden;points=[[0,0.5],[1,0.5]];portConstraint=eastwest;rotatable=0;whiteSpace=wrap;html=1;" parent="160" vertex="1">
                    <mxGeometry y="30" width="240" height="90" as="geometry"/>
                </mxCell>
                <mxCell id="162" value="" style="swimlane;whiteSpace=wrap;html=1;startSize=0;" parent="1" vertex="1">
                    <mxGeometry x="110" y="650" width="240" height="150" as="geometry"/>
                </mxCell>
                <mxCell id="163" value="&lt;div style=&quot;&quot;&gt;+ pauseScreen ( Gamepanel )&lt;/div&gt;&lt;div style=&quot;&quot;&gt;- setArrow ( int , int ) : void&lt;/div&gt;&lt;div style=&quot;&quot;&gt;+ draw ( Graphics2D ) : void&lt;/div&gt;&lt;div style=&quot;&quot;&gt;- LocateCenterText ( String ) : int&amp;nbsp;&lt;/div&gt;&lt;div style=&quot;&quot;&gt;- menu ( Graphics2D , int , int ) : void&lt;/div&gt;&lt;div style=&quot;&quot;&gt;+ drawScreen ( String ) : void&lt;/div&gt;&lt;div style=&quot;&quot;&gt;+ drawSubScreen( int , int , int , int ) : void&lt;/div&gt;" style="text;strokeColor=none;fillColor=none;align=left;verticalAlign=middle;spacingLeft=4;spacingRight=4;overflow=hidden;points=[[0,0.5],[1,0.5]];portConstraint=eastwest;rotatable=0;whiteSpace=wrap;html=1;" parent="162" vertex="1">
                    <mxGeometry y="10" width="240" height="140" as="geometry"/>
                </mxCell>
                <mxCell id="164" value="" style="endArrow=none;html=1;fontColor=#d3e9e4;exitX=0.5;exitY=0;exitDx=0;exitDy=0;fillColor=#60a917;strokeColor=#2D7600;" parent="1" source="160" edge="1">
                    <mxGeometry width="50" height="50" relative="1" as="geometry">
                        <mxPoint x="680" y="480" as="sourcePoint"/>
                        <mxPoint x="540" y="360" as="targetPoint"/>
                        <Array as="points">
                            <mxPoint x="230" y="360"/>
                        </Array>
                    </mxGeometry>
                </mxCell>
                <mxCell id="165" value="" style="endArrow=classic;html=1;fontColor=#d3e9e4;entryX=0.46;entryY=1.023;entryDx=0;entryDy=0;entryPerimeter=0;" parent="1" target="163" edge="1">
                    <mxGeometry width="50" height="50" relative="1" as="geometry">
                        <mxPoint x="540" y="960" as="sourcePoint"/>
                        <mxPoint x="520" y="710" as="targetPoint"/>
                        <Array as="points">
                            <mxPoint x="370" y="960"/>
                            <mxPoint x="220" y="960"/>
                        </Array>
                    </mxGeometry>
                </mxCell>
                <mxCell id="166" value="" style="endArrow=none;html=1;fontColor=#d3e9e4;exitX=0.5;exitY=0;exitDx=0;exitDy=0;fillColor=#f0a30a;strokeColor=#BD7000;" parent="1" source="160" edge="1">
                    <mxGeometry width="50" height="50" relative="1" as="geometry">
                        <mxPoint x="470" y="570" as="sourcePoint"/>
                        <mxPoint x="600" y="490" as="targetPoint"/>
                        <Array as="points">
                            <mxPoint x="230" y="490"/>
                        </Array>
                    </mxGeometry>
                </mxCell>
                <mxCell id="167" value="SuperObject" style="swimlane;fontStyle=0;childLayout=stackLayout;horizontal=1;startSize=30;horizontalStack=0;resizeParent=1;resizeParentMax=0;resizeLast=0;collapsible=1;marginBottom=0;whiteSpace=wrap;html=1;" parent="1" vertex="1">
                    <mxGeometry x="320" y="1040" width="240" height="170" as="geometry"/>
                </mxCell>
                <mxCell id="168" value="+ solid : Rectangle&lt;br&gt;+ solidAreaDefaultX : int&amp;nbsp;&lt;br&gt;+ solidAreaDefaultY : int&lt;br&gt;+ image : BufferedImage&lt;br&gt;+ worldX : int&lt;br&gt;+ wordlY : int&lt;br&gt;+ name : String&lt;br&gt;+ size : int&lt;br&gt;+ text : String&amp;nbsp;" style="text;strokeColor=none;fillColor=none;align=left;verticalAlign=middle;spacingLeft=4;spacingRight=4;overflow=hidden;points=[[0,0.5],[1,0.5]];portConstraint=eastwest;rotatable=0;whiteSpace=wrap;html=1;" parent="167" vertex="1">
                    <mxGeometry y="30" width="240" height="140" as="geometry"/>
                </mxCell>
                <mxCell id="169" value="" style="swimlane;whiteSpace=wrap;html=1;startSize=0;" parent="1" vertex="1">
                    <mxGeometry x="320" y="1210" width="240" height="30" as="geometry"/>
                </mxCell>
                <mxCell id="170" value="&lt;div style=&quot;&quot;&gt;+ abstract draw : void ( Graphics2D , GamePanel )&lt;/div&gt;" style="text;strokeColor=none;fillColor=none;align=left;verticalAlign=middle;spacingLeft=4;spacingRight=4;overflow=hidden;points=[[0,0.5],[1,0.5]];portConstraint=eastwest;rotatable=0;whiteSpace=wrap;html=1;" parent="169" vertex="1">
                    <mxGeometry width="240" height="30" as="geometry"/>
                </mxCell>
                <mxCell id="171" value="object_chest" style="swimlane;fontStyle=0;childLayout=stackLayout;horizontal=1;startSize=30;horizontalStack=0;resizeParent=1;resizeParentMax=0;resizeLast=0;collapsible=1;marginBottom=0;whiteSpace=wrap;html=1;fontColor=#d3e9e4;" parent="1" vertex="1">
                    <mxGeometry x="150" y="1430" width="110" height="70" as="geometry"/>
                </mxCell>
                <mxCell id="174" value="gp : GamePanel&lt;br&gt;+ object_chest ( )&amp;nbsp;" style="text;strokeColor=none;fillColor=none;align=left;verticalAlign=middle;spacingLeft=4;spacingRight=4;overflow=hidden;points=[[0,0.5],[1,0.5]];portConstraint=eastwest;rotatable=0;whiteSpace=wrap;html=1;fontColor=#d3e9e4;" parent="171" vertex="1">
                    <mxGeometry y="30" width="110" height="40" as="geometry"/>
                </mxCell>
                <mxCell id="175" value="object_door" style="swimlane;fontStyle=0;childLayout=stackLayout;horizontal=1;startSize=30;horizontalStack=0;resizeParent=1;resizeParentMax=0;resizeLast=0;collapsible=1;marginBottom=0;whiteSpace=wrap;html=1;fontColor=#d3e9e4;" parent="1" vertex="1">
                    <mxGeometry x="380" y="1490" width="110" height="70" as="geometry"/>
                </mxCell>
                <mxCell id="176" value="gp : GamePanel&lt;br&gt;+ object_door ( )&amp;nbsp;" style="text;strokeColor=none;fillColor=none;align=left;verticalAlign=middle;spacingLeft=4;spacingRight=4;overflow=hidden;points=[[0,0.5],[1,0.5]];portConstraint=eastwest;rotatable=0;whiteSpace=wrap;html=1;fontColor=#d3e9e4;" parent="175" vertex="1">
                    <mxGeometry y="30" width="110" height="40" as="geometry"/>
                </mxCell>
                <mxCell id="177" value="object_Key" style="swimlane;fontStyle=0;childLayout=stackLayout;horizontal=1;startSize=30;horizontalStack=0;resizeParent=1;resizeParentMax=0;resizeLast=0;collapsible=1;marginBottom=0;whiteSpace=wrap;html=1;fontColor=#d3e9e4;" parent="1" vertex="1">
                    <mxGeometry x="150" y="1550" width="110" height="70" as="geometry"/>
                </mxCell>
                <mxCell id="178" value="gp : GamePanel&lt;br&gt;+ object_Key ( )&amp;nbsp;" style="text;strokeColor=none;fillColor=none;align=left;verticalAlign=middle;spacingLeft=4;spacingRight=4;overflow=hidden;points=[[0,0.5],[1,0.5]];portConstraint=eastwest;rotatable=0;whiteSpace=wrap;html=1;fontColor=#d3e9e4;" parent="177" vertex="1">
                    <mxGeometry y="30" width="110" height="40" as="geometry"/>
                </mxCell>
                <mxCell id="181" value="object_speedUp" style="swimlane;fontStyle=0;childLayout=stackLayout;horizontal=1;startSize=30;horizontalStack=0;resizeParent=1;resizeParentMax=0;resizeLast=0;collapsible=1;marginBottom=0;whiteSpace=wrap;html=1;fontColor=#d3e9e4;" parent="1" vertex="1">
                    <mxGeometry x="380" y="1603.75" width="110" height="60" as="geometry"/>
                </mxCell>
                <mxCell id="182" value="gp : GamePanel&lt;br&gt;+ object_speedUp ( )&amp;nbsp;" style="text;strokeColor=none;fillColor=none;align=left;verticalAlign=middle;spacingLeft=4;spacingRight=4;overflow=hidden;points=[[0,0.5],[1,0.5]];portConstraint=eastwest;rotatable=0;whiteSpace=wrap;html=1;fontColor=#d3e9e4;" parent="181" vertex="1">
                    <mxGeometry y="30" width="110" height="30" as="geometry"/>
                </mxCell>
                <mxCell id="184" value="" style="endArrow=classic;html=1;fillColor=#1ba1e2;strokeColor=#006EAF;exitX=0.5;exitY=0;exitDx=0;exitDy=0;entryX=0.478;entryY=1.067;entryDx=0;entryDy=0;entryPerimeter=0;" parent="1" target="170" edge="1">
                    <mxGeometry relative="1" as="geometry">
                        <mxPoint x="435" y="1390" as="sourcePoint"/>
                        <mxPoint x="580" y="1325.9999084472656" as="targetPoint"/>
                        <Array as="points"/>
                    </mxGeometry>
                </mxCell>
                <mxCell id="185" value="Extends" style="edgeLabel;resizable=0;html=1;align=center;verticalAlign=middle;" parent="184" connectable="0" vertex="1">
                    <mxGeometry relative="1" as="geometry">
                        <mxPoint y="-20" as="offset"/>
                    </mxGeometry>
                </mxCell>
                <mxCell id="186" value="" style="endArrow=none;html=1;fontColor=#d3e9e4;entryX=0.478;entryY=1.044;entryDx=0;entryDy=0;entryPerimeter=0;exitX=0.5;exitY=0;exitDx=0;exitDy=0;fillColor=#1ba1e2;strokeColor=#006EAF;" parent="1" source="181" target="170" edge="1">
                    <mxGeometry width="50" height="50" relative="1" as="geometry">
                        <mxPoint x="300" y="1600" as="sourcePoint"/>
                        <mxPoint x="440" y="1380" as="targetPoint"/>
                        <Array as="points">
                            <mxPoint x="435" y="1590"/>
                            <mxPoint x="300" y="1590"/>
                            <mxPoint x="300" y="1380"/>
                            <mxPoint x="435" y="1380"/>
                        </Array>
                    </mxGeometry>
                </mxCell>
                <mxCell id="187" value="" style="endArrow=none;html=1;fontColor=#d3e9e4;exitX=0.5;exitY=0;exitDx=0;exitDy=0;fillColor=#1ba1e2;strokeColor=#006EAF;" parent="1" source="175" edge="1">
                    <mxGeometry width="50" height="50" relative="1" as="geometry">
                        <mxPoint x="450" y="1470" as="sourcePoint"/>
                        <mxPoint x="300" y="1480" as="targetPoint"/>
                        <Array as="points">
                            <mxPoint x="435" y="1480"/>
                        </Array>
                    </mxGeometry>
                </mxCell>
                <mxCell id="188" value="" style="endArrow=none;html=1;fontColor=#d3e9e4;exitX=0.5;exitY=0;exitDx=0;exitDy=0;fillColor=#1ba1e2;strokeColor=#006EAF;" parent="1" source="177" edge="1">
                    <mxGeometry width="50" height="50" relative="1" as="geometry">
                        <mxPoint x="350" y="1470" as="sourcePoint"/>
                        <mxPoint x="300" y="1530" as="targetPoint"/>
                        <Array as="points">
                            <mxPoint x="205" y="1530"/>
                        </Array>
                    </mxGeometry>
                </mxCell>
                <mxCell id="192" value="" style="endArrow=none;html=1;fontColor=#d3e9e4;exitX=0.5;exitY=0;exitDx=0;exitDy=0;fillColor=#1ba1e2;strokeColor=#006EAF;" parent="1" source="171" edge="1">
                    <mxGeometry width="50" height="50" relative="1" as="geometry">
                        <mxPoint x="400" y="1420" as="sourcePoint"/>
                        <mxPoint x="300" y="1410" as="targetPoint"/>
                        <Array as="points">
                            <mxPoint x="205" y="1410"/>
                            <mxPoint x="220" y="1410"/>
                        </Array>
                    </mxGeometry>
                </mxCell>
                <mxCell id="193" value="object_apple" style="swimlane;fontStyle=0;childLayout=stackLayout;horizontal=1;startSize=30;horizontalStack=0;resizeParent=1;resizeParentMax=0;resizeLast=0;collapsible=1;marginBottom=0;whiteSpace=wrap;html=1;fontColor=#d3e9e4;" parent="1" vertex="1">
                    <mxGeometry x="380" y="1390" width="110" height="70" as="geometry"/>
                </mxCell>
                <mxCell id="194" value="gp : GamePanel&lt;br&gt;+ object_apple ( )&amp;nbsp;" style="text;strokeColor=none;fillColor=none;align=left;verticalAlign=middle;spacingLeft=4;spacingRight=4;overflow=hidden;points=[[0,0.5],[1,0.5]];portConstraint=eastwest;rotatable=0;whiteSpace=wrap;html=1;fontColor=#d3e9e4;" parent="193" vertex="1">
                    <mxGeometry y="30" width="110" height="40" as="geometry"/>
                </mxCell>
                <mxCell id="195" value="" style="endArrow=classic;html=1;fontColor=#d3e9e4;exitX=0.5;exitY=0;exitDx=0;exitDy=0;fillColor=#f0a30a;strokeColor=#BD7000;entryX=0.501;entryY=1.002;entryDx=0;entryDy=0;entryPerimeter=0;" parent="1" source="142" target="23" edge="1">
                    <mxGeometry width="50" height="50" relative="1" as="geometry">
                        <mxPoint x="970" y="960" as="sourcePoint"/>
                        <mxPoint x="1040" y="720" as="targetPoint"/>
                        <Array as="points">
                            <mxPoint x="810" y="890"/>
                            <mxPoint x="1120" y="890"/>
                        </Array>
                    </mxGeometry>
                </mxCell>
                <mxCell id="196" value="" style="endArrow=none;html=1;fontColor=#d3e9e4;exitX=0.5;exitY=0;exitDx=0;exitDy=0;fillColor=#f0a30a;strokeColor=#BD7000;" parent="1" source="167" edge="1">
                    <mxGeometry width="50" height="50" relative="1" as="geometry">
                        <mxPoint x="570" y="1010" as="sourcePoint"/>
                        <mxPoint x="820" y="890" as="targetPoint"/>
                        <Array as="points">
                            <mxPoint x="440" y="890"/>
                        </Array>
                    </mxGeometry>
                </mxCell>
                <mxCell id="197" value="Tiles" style="swimlane;fontStyle=0;childLayout=stackLayout;horizontal=1;startSize=30;horizontalStack=0;resizeParent=1;resizeParentMax=0;resizeLast=0;collapsible=1;marginBottom=0;whiteSpace=wrap;html=1;" parent="1" vertex="1">
                    <mxGeometry x="1025" y="1367.5" width="200" height="90" as="geometry"/>
                </mxCell>
                <mxCell id="198" value="+ image : BufferedImage&lt;br&gt;+ collision : boolean" style="text;strokeColor=none;fillColor=none;align=left;verticalAlign=middle;spacingLeft=4;spacingRight=4;overflow=hidden;points=[[0,0.5],[1,0.5]];portConstraint=eastwest;rotatable=0;whiteSpace=wrap;html=1;" parent="197" vertex="1">
                    <mxGeometry y="30" width="200" height="60" as="geometry"/>
                </mxCell>
                <mxCell id="203" value="" style="endArrow=none;html=1;fontColor=#d3e9e4;entryX=0.5;entryY=0;entryDx=0;entryDy=0;" parent="1" target="26" edge="1">
                    <mxGeometry width="50" height="50" relative="1" as="geometry">
                        <mxPoint x="1970" y="760" as="sourcePoint"/>
                        <mxPoint x="2020" y="680" as="targetPoint"/>
                        <Array as="points">
                            <mxPoint x="2195" y="760"/>
                        </Array>
                    </mxGeometry>
                </mxCell>
                <mxCell id="204" value="TilesManager" style="swimlane;fontStyle=0;childLayout=stackLayout;horizontal=1;startSize=30;horizontalStack=0;resizeParent=1;resizeParentMax=0;resizeLast=0;collapsible=1;marginBottom=0;whiteSpace=wrap;html=1;" parent="1" vertex="1">
                    <mxGeometry x="1000" y="1050" width="240" height="120" as="geometry"/>
                </mxCell>
                <mxCell id="205" value="+ gp : GamePanel&amp;nbsp;&lt;br&gt;+ keyBoard : keyControl&lt;br&gt;+ tile : Tiles [ ]&lt;br&gt;+ mapTileNumber [ ] [ ]&amp;nbsp;" style="text;strokeColor=none;fillColor=none;align=left;verticalAlign=middle;spacingLeft=4;spacingRight=4;overflow=hidden;points=[[0,0.5],[1,0.5]];portConstraint=eastwest;rotatable=0;whiteSpace=wrap;html=1;" parent="204" vertex="1">
                    <mxGeometry y="30" width="240" height="90" as="geometry"/>
                </mxCell>
                <mxCell id="206" value="" style="swimlane;whiteSpace=wrap;html=1;startSize=0;" parent="1" vertex="1">
                    <mxGeometry x="1000" y="1170" width="240" height="145" as="geometry"/>
                </mxCell>
                <mxCell id="207" value="&lt;div style=&quot;&quot;&gt;+ TilesManager ( GamePanel )&lt;/div&gt;&lt;div style=&quot;&quot;&gt;+ loadMap : void&lt;/div&gt;&lt;div style=&quot;&quot;&gt;+ getImagine&lt;/div&gt;&lt;div style=&quot;&quot;&gt;+ update () : void&lt;/div&gt;&lt;div style=&quot;&quot;&gt;+ setup ( int , String , boolean ) : void&lt;/div&gt;&lt;div style=&quot;&quot;&gt;+ draw ( Graphics2D ) : void&lt;/div&gt;" style="text;strokeColor=none;fillColor=none;align=left;verticalAlign=middle;spacingLeft=4;spacingRight=4;overflow=hidden;points=[[0,0.5],[1,0.5]];portConstraint=eastwest;rotatable=0;whiteSpace=wrap;html=1;" parent="206" vertex="1">
                    <mxGeometry y="-5" width="240" height="150" as="geometry"/>
                </mxCell>
                <mxCell id="209" value="" style="endArrow=classic;html=1;exitX=0.522;exitY=1.014;exitDx=0;exitDy=0;fillColor=#1ba1e2;strokeColor=#006EAF;exitPerimeter=0;entryX=0.5;entryY=0;entryDx=0;entryDy=0;" parent="1" source="207" target="197" edge="1">
                    <mxGeometry relative="1" as="geometry">
                        <mxPoint x="1431.1" y="862.04" as="sourcePoint"/>
                        <mxPoint x="1430" y="1050" as="targetPoint"/>
                    </mxGeometry>
                </mxCell>
                <mxCell id="210" value="Extends" style="edgeLabel;resizable=0;html=1;align=center;verticalAlign=middle;" parent="209" connectable="0" vertex="1">
                    <mxGeometry relative="1" as="geometry">
                        <mxPoint y="-5" as="offset"/>
                    </mxGeometry>
                </mxCell>
                <mxCell id="211" value="" style="shape=flexArrow;endArrow=classic;html=1;exitX=0.374;exitY=-0.015;exitDx=0;exitDy=0;exitPerimeter=0;entryX=0.5;entryY=1;entryDx=0;entryDy=0;" parent="1" edge="1">
                    <mxGeometry width="50" height="50" relative="1" as="geometry">
                        <mxPoint x="1124.4699999999996" y="1518.4999999999995" as="sourcePoint"/>
                        <mxPoint x="1124.55" y="1457.5" as="targetPoint"/>
                    </mxGeometry>
                </mxCell>
                <mxCell id="212" value="tiles" style="shape=note;whiteSpace=wrap;html=1;backgroundOutline=1;darkOpacity=0.05;" parent="1" vertex="1">
                    <mxGeometry x="1085" y="1520" width="80" height="100" as="geometry"/>
                </mxCell>
                <mxCell id="213" value="chest" style="shape=note;whiteSpace=wrap;html=1;backgroundOutline=1;darkOpacity=0.05;fontColor=#d3e9e4;size=13;" parent="1" vertex="1">
                    <mxGeometry x="60" y="1440" width="40" height="60" as="geometry"/>
                </mxCell>
                <mxCell id="214" value="key" style="shape=note;whiteSpace=wrap;html=1;backgroundOutline=1;darkOpacity=0.05;fontColor=#d3e9e4;size=13;" parent="1" vertex="1">
                    <mxGeometry x="60" y="1560" width="40" height="60" as="geometry"/>
                </mxCell>
                <mxCell id="215" value="apple" style="shape=note;whiteSpace=wrap;html=1;backgroundOutline=1;darkOpacity=0.05;fontColor=#d3e9e4;size=13;" parent="1" vertex="1">
                    <mxGeometry x="540" y="1400" width="40" height="60" as="geometry"/>
                </mxCell>
                <mxCell id="216" value="door" style="shape=note;whiteSpace=wrap;html=1;backgroundOutline=1;darkOpacity=0.05;fontColor=#d3e9e4;size=13;" parent="1" vertex="1">
                    <mxGeometry x="540" y="1500" width="40" height="60" as="geometry"/>
                </mxCell>
                <mxCell id="217" value="sdU" style="shape=note;whiteSpace=wrap;html=1;backgroundOutline=1;darkOpacity=0.05;fontColor=#d3e9e4;size=13;" parent="1" vertex="1">
                    <mxGeometry x="540" y="1603.75" width="40" height="60" as="geometry"/>
                </mxCell>
                <mxCell id="218" value="" style="shape=flexArrow;endArrow=classic;html=1;fontColor=#d3e9e4;exitX=0;exitY=0;exitDx=40;exitDy=36.5;exitPerimeter=0;" parent="1" source="213" edge="1">
                    <mxGeometry width="50" height="50" relative="1" as="geometry">
                        <mxPoint x="330" y="1530" as="sourcePoint"/>
                        <mxPoint x="150" y="1477" as="targetPoint"/>
                    </mxGeometry>
                </mxCell>
                <mxCell id="219" value="" style="shape=flexArrow;endArrow=classic;html=1;fontColor=#d3e9e4;exitX=0;exitY=0;exitDx=40;exitDy=36.5;exitPerimeter=0;" parent="1" edge="1">
                    <mxGeometry width="50" height="50" relative="1" as="geometry">
                        <mxPoint x="100" y="1590" as="sourcePoint"/>
                        <mxPoint x="150" y="1590.5" as="targetPoint"/>
                    </mxGeometry>
                </mxCell>
                <mxCell id="220" value="" style="shape=flexArrow;endArrow=classic;html=1;fontColor=#d3e9e4;exitX=0;exitY=0.5;exitDx=0;exitDy=0;exitPerimeter=0;width=10.90909090909091;endSize=5.533333333333334;entryX=1;entryY=0.5;entryDx=0;entryDy=0;" parent="1" source="217" target="181" edge="1">
                    <mxGeometry width="50" height="50" relative="1" as="geometry">
                        <mxPoint x="470" y="1700" as="sourcePoint"/>
                        <mxPoint x="520" y="1700.5" as="targetPoint"/>
                    </mxGeometry>
                </mxCell>
                <mxCell id="221" value="" style="shape=flexArrow;endArrow=classic;html=1;fontColor=#d3e9e4;exitX=0;exitY=0.5;exitDx=0;exitDy=0;exitPerimeter=0;width=10.90909090909091;endSize=5.533333333333334;entryX=1;entryY=0.5;entryDx=0;entryDy=0;" parent="1" edge="1">
                    <mxGeometry width="50" height="50" relative="1" as="geometry">
                        <mxPoint x="540" y="1529.7" as="sourcePoint"/>
                        <mxPoint x="490" y="1529.7" as="targetPoint"/>
                        <Array as="points"/>
                    </mxGeometry>
                </mxCell>
                <mxCell id="222" value="" style="shape=flexArrow;endArrow=classic;html=1;fontColor=#d3e9e4;exitX=0;exitY=0.5;exitDx=0;exitDy=0;exitPerimeter=0;width=10.90909090909091;endSize=5.533333333333334;entryX=1;entryY=0.5;entryDx=0;entryDy=0;" parent="1" edge="1">
                    <mxGeometry width="50" height="50" relative="1" as="geometry">
                        <mxPoint x="540" y="1429.6999999999998" as="sourcePoint"/>
                        <mxPoint x="490" y="1429.6999999999998" as="targetPoint"/>
                        <Array as="points"/>
                    </mxGeometry>
                </mxCell>
                <mxCell id="223" value="" style="endArrow=none;html=1;fontColor=#d3e9e4;exitX=0.5;exitY=0;exitDx=0;exitDy=0;fillColor=#f0a30a;strokeColor=#BD7000;" parent="1" source="204" edge="1">
                    <mxGeometry width="50" height="50" relative="1" as="geometry">
                        <mxPoint x="1160" y="980" as="sourcePoint"/>
                        <mxPoint x="1120" y="860" as="targetPoint"/>
                    </mxGeometry>
                </mxCell>
            </root>
        </mxGraphModel>
    </diagram>
</mxfile>